<svg width="577" height="510" viewBox="0 0 577 510" fill="none" xmlns="http://www.w3.org/2000/svg">
<g clip-path="url(#clip0_6_111)">
<path d="M577 365.144H0V494.387H577V365.144Z" fill="#255B87"/>
<path opacity="0.3" d="M120.208 368.484C96.7052 421.372 126.286 512.779 167.138 527.566C189.718 535.74 198.603 514.317 239.455 505.594C320.254 488.323 370.107 554.066 401.784 524.93C416.479 511.416 406.419 496.695 425.634 442.312C445.271 386.721 463.812 379.338 461.023 363.21C450.618 303.29 168.926 258.861 120.208 368.484Z" fill="#173955"/>
<path d="M464.504 342.204C463.312 350.466 460.254 360.903 460.254 365.407C460.254 367.077 456.888 369.406 451.868 371.977C441.136 377.448 422.826 383.952 413.459 387.16C409.843 388.39 407.554 389.138 407.554 389.138H175.6C175.6 389.138 151.751 389.138 118.9 365.846C116.265 363.979 114.073 362.111 112.265 360.265C108.476 356.398 106.341 352.597 105.379 348.927C100.975 332.294 120.593 318.825 120.593 318.825C118.477 314.013 118.612 308.981 119.554 304.652C120.805 298.874 123.516 294.347 124.247 293.183C124.363 292.985 124.44 292.897 124.44 292.897C123.016 280.087 135.345 259.323 144.923 245.414C149.847 238.273 154.04 232.911 155.251 231.395C155.482 231.11 155.617 230.956 155.617 230.956C162.195 192.987 208.355 179.188 217.51 176.793C218.529 176.529 219.087 176.398 219.087 176.398C219.087 176.398 313.715 182.594 344.488 179.078C345.488 178.968 346.469 178.902 347.45 178.902C376.512 178.639 395.245 223.903 395.245 223.903C416.017 225.221 420.248 262.135 420.248 262.135C435.635 263.454 453.714 310.915 453.714 310.915C458.6 310.915 460.811 318.583 462.485 325.417C463.196 328.251 463.793 330.954 464.485 332.887C465.216 334.975 465.062 338.359 464.504 342.204Z" fill="#3978A7"/>
<path opacity="0.3" d="M347.95 200.062C347.95 200.062 349.681 248.754 339.584 256.664C329.486 264.574 333.237 214.476 333.237 214.476C333.237 214.476 299.194 240.844 301.213 284.35C303.233 327.856 375.646 294.238 375.646 294.238C375.646 294.238 372.473 214.476 379.108 212.828C379.108 212.828 364.683 208.566 361.51 241.854C361.51 241.854 351.412 198.986 349.104 198.656C346.796 198.326 347.95 200.062 347.95 200.062Z" fill="#173955"/>
<path opacity="0.3" d="M222.28 200.062C222.28 200.062 220.549 248.754 230.646 256.664C240.744 264.574 236.993 214.476 236.993 214.476C236.993 214.476 271.036 240.844 269.017 284.35C266.997 327.856 194.584 294.238 194.584 294.238C194.584 294.238 197.757 214.476 191.122 212.828C191.122 212.828 205.547 208.566 208.72 241.854C208.72 241.854 218.818 198.986 221.126 198.656C223.434 198.326 222.28 200.062 222.28 200.062Z" fill="#173955"/>
<path opacity="0.5" d="M150.328 367.846C150.616 366.857 147.154 340.49 160.137 336.535C160.137 336.535 140.807 336.535 139.653 361.584C138.499 386.633 146.577 354.333 146.577 354.333L150.328 367.846Z" fill="#173955"/>
<path opacity="0.5" d="M135.326 324.011C120.324 320.737 112.265 360.266 112.265 360.266C108.476 356.399 106.341 352.597 105.379 348.928C113.13 317.111 134.903 323.879 135.326 324.011Z" fill="#173955"/>
<path opacity="0.5" d="M153.251 319.111C146.443 312.892 129.594 307.487 119.574 304.653C120.824 298.874 123.536 294.347 124.267 293.183C135.48 295.71 147.789 311.42 153.251 319.111Z" fill="#173955"/>
<path opacity="0.5" d="M171.965 278.197L146.577 261.718L144.904 245.392C149.828 238.251 154.021 232.889 155.232 231.373C154.905 242.579 154.655 254.137 154.655 254.137L171.965 278.197Z" fill="#173955"/>
<path opacity="0.5" d="M395.841 231.395C395.553 228.451 389.013 267.628 379.108 265.014C379.108 265.014 399.303 266.332 395.841 231.395Z" fill="#173955"/>
<path opacity="0.5" d="M462.485 325.417C453.272 307.377 415.729 311.486 415.729 311.486C446.636 317.089 459.754 333.855 464.485 342.226L462.485 325.417Z" fill="#173955"/>
<path opacity="0.5" d="M413.459 387.16C413.44 384.985 431.327 369.824 419.21 342.468C407.093 315.112 436.231 354.663 439.982 358.288C443.732 361.914 451.868 371.977 451.868 371.977C441.136 377.448 422.826 383.952 413.459 387.16Z" fill="#173955"/>
<g opacity="0.5">
<g opacity="0.5">
<path opacity="0.5" d="M219.491 183.033C226.453 183.473 279.287 186.769 316.427 186.769C328.948 186.769 338.564 186.395 345.027 185.648C345.835 185.56 346.642 185.516 347.431 185.494H347.45C347.508 185.494 347.585 185.494 347.643 185.494C353.105 185.494 358.625 187.494 364.087 191.427C368.722 194.767 373.3 199.469 377.704 205.445C385.455 215.926 389.956 226.627 389.994 226.737L391.456 230.275L394.88 230.494C398.207 230.714 401.13 232.208 403.804 235.109C406.189 237.701 408.324 241.349 410.132 245.963C413.459 254.379 414.478 262.926 414.498 262.992L415.113 268.309L419.787 268.705C420.71 268.793 423.326 269.54 427.73 274.813C430.846 278.549 434.231 283.778 437.751 290.348C443.925 301.862 448.368 313.441 448.406 313.551L449.906 317.506H453.426C453.657 317.748 454.176 318.473 454.849 320.187C455.561 321.989 456.157 324.164 456.696 326.339V328.141L457.311 328.844C457.888 331.195 458.427 333.415 459.08 335.282C459.119 335.436 459.388 336.842 458.773 341.127C458.292 344.489 457.446 348.356 456.638 352.07C455.734 356.222 454.926 359.936 454.599 362.946C453.811 363.539 452.272 364.528 449.483 365.956C438.751 371.45 419.537 378.195 411.766 380.854C409.439 381.645 407.651 382.238 406.708 382.568H175.62C175.408 382.568 169.773 382.458 160.483 379.711C154.963 378.085 149.251 375.844 143.5 373.097C136.307 369.648 129.056 365.319 121.939 360.287C119.689 358.683 117.708 357.035 116.092 355.387C113.419 352.641 111.669 349.894 110.919 347.214L110.88 347.038C110.265 344.687 110.38 342.292 111.226 339.721C112.015 337.326 113.438 334.843 115.419 332.316C119.093 327.636 123.401 324.604 123.555 324.494L128.132 321.374L125.728 315.902C124.536 313.178 124.344 309.948 125.132 306.278C126.151 301.642 128.402 297.863 128.883 297.094C128.96 296.984 128.998 296.918 128.998 296.918L130.421 294.765L130.114 292.084C129.844 289.667 130.19 283.932 135.557 272.77C138.884 265.871 143.538 258.048 149.405 249.501C154.174 242.557 158.29 237.328 159.444 235.856L159.81 235.416L160.906 234.054L161.214 232.252C162.522 224.716 165.791 217.684 170.946 211.29C175.37 205.819 181.216 200.765 188.314 196.305C201.315 188.131 214.875 184.22 218.721 183.231C219.048 183.143 219.298 183.077 219.491 183.033ZM219.068 176.398C219.068 176.398 218.51 176.529 217.491 176.793C208.336 179.166 162.175 192.965 155.598 230.956C155.598 230.956 155.482 231.11 155.232 231.395C154.021 232.933 149.828 238.273 144.904 245.414C135.326 259.323 122.997 280.087 124.42 292.897C124.42 292.897 124.344 293.007 124.228 293.183C123.497 294.347 120.805 298.874 119.535 304.652C118.593 308.981 118.458 314.013 120.574 318.825C120.574 318.825 100.956 332.294 105.36 348.905C106.322 352.575 108.476 356.398 112.246 360.243C114.054 362.111 116.266 363.957 118.881 365.824C151.751 389.138 175.6 389.138 175.6 389.138H407.554C407.554 389.138 409.843 388.39 413.459 387.16C422.826 383.952 441.136 377.448 451.868 371.977C456.888 369.406 460.254 367.077 460.254 365.407C460.254 360.903 463.293 350.488 464.504 342.226C465.062 338.381 465.235 334.997 464.485 332.887C463.812 330.954 463.196 328.251 462.504 325.417C460.812 318.583 458.619 310.915 453.734 310.915C453.734 310.915 435.654 263.454 420.268 262.135C420.268 262.135 416.036 225.221 395.264 223.903C395.264 223.903 376.646 178.902 347.681 178.902C347.604 178.902 347.527 178.902 347.45 178.902C346.469 178.902 345.488 178.968 344.488 179.078C337.699 179.847 327.775 180.155 316.465 180.155C276.518 180.155 219.068 176.398 219.068 176.398Z" fill="#326994"/>
</g>
</g>
<path d="M286.192 228.495C286.192 228.539 286.115 229.308 286.057 230.56C286 231.791 285.904 233.483 285.865 235.329C285.846 235.79 285.846 236.251 285.827 236.735C285.807 237.218 285.807 237.702 285.788 238.163C285.769 239.13 285.75 240.097 285.75 241.019C285.75 241.942 285.73 242.843 285.73 243.656C285.73 244.469 285.73 245.216 285.73 245.854H286.019C286.019 245.854 286.019 245.59 286.019 245.106C286.019 244.623 286.019 243.964 286.019 243.151C286.019 242.338 286.038 241.393 286.038 240.382C286.057 239.372 286.077 238.295 286.096 237.196C286.115 236.12 286.154 235.043 286.192 234.032C286.23 233.021 286.269 232.077 286.307 231.286C286.346 230.473 286.384 229.813 286.423 229.352C286.442 229.132 286.461 228.934 286.461 228.825C286.481 228.715 286.48 228.649 286.48 228.649L286.192 228.495Z" fill="black"/>
<path d="M284.865 227.814C284.865 227.814 284.865 227.924 284.846 228.077C284.826 228.209 284.826 228.385 284.807 228.627C284.788 228.868 284.769 229.11 284.749 229.418C284.73 229.725 284.711 230.077 284.692 230.429C284.673 230.802 284.653 231.198 284.634 231.615C284.615 232.033 284.596 232.472 284.576 232.933C284.538 233.856 284.499 234.845 284.48 235.878C284.48 236.141 284.461 236.383 284.461 236.647C284.461 236.91 284.442 237.152 284.442 237.416C284.423 237.921 284.423 238.427 284.403 238.932C284.384 239.943 284.384 240.91 284.365 241.81C284.365 242.711 284.346 243.524 284.346 244.205C284.346 244.887 284.346 245.458 284.346 245.831H284.634C284.634 245.831 284.634 245.546 284.634 245.084C284.634 244.601 284.634 243.92 284.634 243.085C284.634 242.25 284.653 241.283 284.653 240.25C284.673 239.218 284.692 238.119 284.711 236.998C284.73 236.449 284.749 235.9 284.749 235.35C284.769 234.801 284.788 234.274 284.807 233.746C284.846 232.692 284.884 231.725 284.942 230.868C285.019 229.176 285.134 228.012 285.134 227.924L284.865 227.814Z" fill="black"/>
<path d="M287.654 229.286C287.654 229.242 287.615 229.769 287.558 230.758C287.519 231.242 287.5 231.857 287.461 232.516C287.442 233.197 287.404 233.966 287.365 234.779C287.346 235.614 287.308 236.471 287.288 237.394C287.269 238.317 287.25 239.262 287.231 240.206C287.211 242.118 287.192 244.052 287.192 245.854H287.481C287.481 245.854 287.481 245.59 287.481 245.128C287.481 244.667 287.481 243.986 287.481 243.195C287.481 242.404 287.5 241.481 287.5 240.47C287.519 239.481 287.538 238.427 287.558 237.372C287.577 236.845 287.596 236.317 287.596 235.812C287.615 235.307 287.615 234.801 287.634 234.318C287.673 233.351 287.711 232.45 287.75 231.703C287.827 230.187 287.904 229.264 287.904 229.418L287.654 229.286Z" fill="black"/>
<path d="M289.289 230.143C289.308 229.857 289.173 231.439 289.077 234.274C288.962 237.108 288.885 241.195 288.885 245.854H289.173C289.173 245.854 289.173 245.59 289.173 245.128C289.173 244.667 289.173 244.008 289.173 243.239C289.173 242.47 289.192 241.569 289.192 240.58C289.212 239.613 289.231 238.603 289.25 237.57C289.25 237.064 289.289 236.559 289.289 236.076C289.308 235.592 289.308 235.087 289.327 234.625C289.366 233.703 289.404 232.846 289.442 232.165C289.442 231.989 289.462 231.813 289.462 231.659C289.462 231.505 289.481 231.374 289.481 231.242C289.481 231.11 289.5 230.978 289.5 230.868C289.5 230.758 289.519 230.648 289.519 230.582C289.539 230.429 289.539 230.319 289.539 230.253C289.539 230.275 289.539 230.275 289.539 230.275L289.289 230.143Z" fill="black"/>
<path d="M285.692 245.853C285.692 245.897 285.692 246.688 285.692 247.919C285.692 249.171 285.711 250.863 285.73 252.709C285.75 254.555 285.788 256.554 285.827 258.4C285.865 260.246 285.923 261.959 285.942 263.212L286.23 263.168C286.23 263.168 286.211 262.091 286.154 260.465C286.096 258.839 286.077 256.686 286.038 254.511C286.019 253.434 286 252.335 286 251.325C286 250.314 285.98 249.369 285.98 248.556C285.98 247.743 285.98 247.062 285.98 246.6C285.98 246.117 285.98 245.853 285.98 245.853H285.692Z" fill="black"/>
<path d="M284.326 245.853C284.326 245.875 284.326 246.82 284.326 248.226C284.346 249.655 284.365 251.544 284.365 253.566C284.403 255.565 284.423 257.653 284.461 259.433C284.499 261.212 284.538 262.663 284.557 263.432L284.846 263.388C284.846 263.388 284.826 262.289 284.769 260.663C284.711 259.037 284.692 256.84 284.653 254.643C284.634 253.544 284.615 252.445 284.615 251.412C284.615 250.38 284.596 249.435 284.596 248.6C284.596 247.787 284.596 247.084 284.596 246.6C284.596 246.117 284.596 245.853 284.596 245.853H284.326Z" fill="black"/>
<path d="M287.192 245.875C287.192 245.919 287.192 246.557 287.192 247.611C287.192 248.666 287.211 250.116 287.231 251.808C287.269 255.17 287.346 259.411 287.442 263.014L287.731 262.97C287.731 262.97 287.711 261.894 287.654 260.29C287.596 258.685 287.577 256.554 287.538 254.401C287.519 253.324 287.5 252.269 287.5 251.259C287.5 250.248 287.481 249.325 287.481 248.512C287.481 247.721 287.481 247.04 287.481 246.578C287.481 246.117 287.481 245.853 287.481 245.853L287.192 245.875Z" fill="black"/>
<path d="M288.865 245.875C288.865 245.919 288.865 246.403 288.865 247.26C288.865 248.117 288.885 249.325 288.885 250.841C288.885 251.588 288.904 252.423 288.904 253.302C288.923 254.203 288.942 255.148 288.962 256.159C288.962 256.664 288.981 257.169 288.981 257.697C288.981 258.224 289 258.773 289.019 259.323C289.039 260.421 289.077 261.586 289.115 262.75L289.404 262.707C289.404 262.707 289.385 261.652 289.346 260.07C289.289 258.488 289.269 256.378 289.231 254.269C289.212 253.214 289.192 252.16 289.192 251.171C289.192 250.182 289.173 249.259 289.173 248.49C289.173 247.699 289.173 247.062 289.173 246.6C289.173 246.139 289.173 245.875 289.173 245.875H288.865Z" fill="black"/>
<path d="M285.942 263.234C285.942 263.278 285.961 264.069 286 265.299C286.038 266.53 286.096 268.222 286.154 270.067C286.192 270.99 286.211 271.957 286.25 272.902C286.288 273.869 286.327 274.814 286.365 275.736C286.442 277.582 286.5 279.274 286.557 280.526L286.846 280.461C286.846 280.461 286.827 280.197 286.807 279.713C286.788 279.252 286.769 278.571 286.731 277.758C286.673 276.132 286.577 273.979 286.5 271.825C286.423 269.672 286.365 267.497 286.307 265.871C286.269 265.058 286.269 264.376 286.25 263.915C286.23 263.432 286.23 263.168 286.23 263.168L285.942 263.234Z" fill="black"/>
<path d="M284.596 263.432C284.596 263.454 284.615 264.376 284.653 265.783C284.692 267.189 284.769 269.079 284.826 271.078C284.846 271.583 284.865 272.067 284.884 272.572C284.903 273.078 284.923 273.561 284.942 274.066C284.98 275.055 285.019 276 285.057 276.901C285.134 278.659 285.192 280.109 285.23 280.856L285.519 280.79C285.519 280.79 285.5 280.526 285.48 280.043C285.461 279.56 285.442 278.878 285.403 278.065C285.346 276.439 285.25 274.264 285.153 272.089C285.076 269.914 285 267.738 284.961 266.09C284.923 265.277 284.923 264.596 284.903 264.113C284.884 263.629 284.884 263.366 284.884 263.366L284.596 263.432Z" fill="black"/>
<path d="M287.442 263.014C287.442 263.058 287.461 263.695 287.481 264.75C287.519 265.805 287.558 267.277 287.615 268.947C287.635 269.782 287.673 270.683 287.711 271.606C287.75 272.528 287.788 273.495 287.827 274.462C287.904 276.396 287.981 278.351 288.058 280.153L288.346 280.087C288.346 280.087 288.327 279.823 288.308 279.34C288.288 278.879 288.269 278.197 288.231 277.406C288.173 275.802 288.077 273.649 288 271.518C287.923 269.364 287.865 267.233 287.808 265.629C287.769 264.816 287.769 264.157 287.75 263.695C287.731 263.234 287.731 262.948 287.731 262.948L287.442 263.014Z" fill="black"/>
<path d="M289.115 262.772C289.115 262.816 289.135 263.322 289.154 264.179C289.173 265.036 289.212 266.266 289.269 267.782C289.289 268.551 289.327 269.364 289.346 270.265C289.366 270.705 289.385 271.166 289.385 271.649C289.404 272.133 289.423 272.616 289.442 273.122C289.519 275.143 289.616 277.384 289.712 279.757L290 279.692C290 279.692 289.981 279.428 289.962 278.966C289.943 278.505 289.923 277.846 289.885 277.033C289.827 275.451 289.731 273.319 289.654 271.188C289.577 269.057 289.519 266.947 289.462 265.365C289.423 264.574 289.423 263.915 289.404 263.454C289.385 262.992 289.385 262.729 289.385 262.729L289.115 262.772Z" fill="black"/>
<path d="M286.577 280.549C286.577 280.615 286.731 283.691 286.904 287.36C286.942 288.283 287 289.228 287.058 290.195C287.115 291.14 287.154 292.106 287.211 293.029C287.308 294.875 287.404 296.567 287.481 297.819L287.75 297.731C287.75 297.731 287.519 293.425 287.269 289.118C287.058 284.811 286.846 280.505 286.846 280.505L286.577 280.549Z" fill="black"/>
<path d="M285.211 280.9C285.211 280.966 285.384 284.548 285.577 288.503C285.788 292.436 286.019 296.742 286.115 298.237L286.384 298.149C286.384 298.149 286.154 293.82 285.903 289.491C285.788 287.316 285.692 285.163 285.615 283.537C285.538 281.911 285.48 280.834 285.48 280.834L285.211 280.9Z" fill="black"/>
<path d="M288.058 280.175C288.058 280.263 288.173 282.746 288.346 286.13C288.423 287.822 288.538 289.711 288.635 291.645C288.75 293.578 288.846 295.534 288.942 297.314L289.212 297.226C289.212 297.226 288.981 292.941 288.731 288.679C288.519 284.394 288.308 280.109 288.308 280.109L288.058 280.175Z" fill="black"/>
<path d="M289.731 279.758C289.731 279.845 289.827 281.735 289.981 284.789C290.019 285.558 290.058 286.393 290.096 287.272C290.135 288.173 290.193 289.118 290.25 290.129C290.366 292.15 290.481 294.391 290.616 296.764L290.885 296.677C290.885 296.677 290.654 292.436 290.423 288.173C290.212 283.932 290 279.67 290 279.67L289.731 279.758Z" fill="black"/>
<path d="M244.206 284.504C242.186 284.504 240.378 282.878 239.974 280.527C234.743 250.49 253.688 207.159 254.495 205.314C255.573 202.875 258.169 201.908 260.304 203.138C262.439 204.369 263.285 207.335 262.208 209.774C262.016 210.192 243.802 251.918 248.456 278.593C248.918 281.274 247.398 283.866 245.052 284.416C244.783 284.482 244.494 284.504 244.206 284.504Z" fill="#122E45"/>
<path d="M320.004 306.63C319.6 306.63 319.177 306.564 318.754 306.41C316.465 305.619 315.157 302.873 315.85 300.258C320.312 283.295 310.311 228.429 306.098 208.719C305.521 206.061 306.945 203.38 309.272 202.743C311.599 202.084 313.926 203.71 314.503 206.368C314.542 206.544 318.446 224.803 321.581 245.524C325.87 273.869 326.736 293.249 324.139 303.092C323.582 305.246 321.87 306.63 320.004 306.63Z" fill="#122E45"/>
<path d="M214.836 170.729C214.836 170.729 209.066 161.939 214.836 150.514C220.606 139.088 227.915 104.371 233.3 105.689C233.3 105.689 246.379 81.9585 248.687 74.9272C250.995 67.8959 266.382 63.0619 272.536 56.0306C278.691 48.9993 282.538 46.3625 282.538 46.3625C282.538 46.3625 291.385 46.802 298.309 54.2728C305.233 61.7435 314.08 63.0619 317.542 73.1694C321.004 83.2768 337.545 114.918 337.93 121.07C338.314 127.222 349.123 157.984 350.258 170.729C351.393 183.473 214.836 170.729 214.836 170.729Z" fill="#173955"/>
<path d="M268.305 227.858C268.305 227.858 213.298 179.078 214.836 170.728C216.375 162.379 218.683 161.06 259.458 156.226C300.232 151.392 331.39 150.953 338.314 156.226C345.238 161.5 353.316 167.213 349.085 176.002C344.854 184.791 326.005 204.127 324.082 209.401C322.158 214.674 306.002 225.66 301.386 232.692C296.77 239.723 271.382 234.45 268.305 227.858Z" fill="#00121A"/>
<path d="M156.098 323.307C156.098 323.307 155.04 321.637 153.232 319.089C154.751 320.473 155.752 321.879 156.098 323.307Z" fill="#173955"/>
<path d="M218.991 149.657C218.991 149.657 235.724 147.349 237.455 142.076C239.186 136.803 263.708 124.278 263.708 124.278C263.708 124.278 231.415 127.574 231.685 136.956C231.954 146.339 218.991 149.657 218.991 149.657Z" fill="#122E45"/>
<path d="M250.726 111.38C250.726 111.38 266.882 91.6704 274.96 94.3072C274.96 94.2852 255.996 87.9131 250.726 111.38Z" fill="#122E45"/>
<path d="M282.326 90.6597C282.326 90.6597 282.365 90.0225 282.441 88.9239C282.48 88.3745 282.518 87.7153 282.557 86.9683C282.576 86.7705 282.576 86.5947 282.595 86.397C282.615 86.1992 282.615 86.0015 282.634 85.7817C282.653 85.3643 282.692 84.9248 282.711 84.4634C282.749 83.5405 282.826 82.5517 282.884 81.4971C282.903 80.9697 282.961 80.4424 282.98 79.893C282.999 79.3437 283.038 78.7944 283.076 78.2231C283.115 77.6518 283.134 77.0805 283.172 76.4873C283.211 75.894 283.249 75.3227 283.269 74.7294C283.288 74.1362 283.326 73.5429 283.345 72.9277C283.365 72.3344 283.422 71.7192 283.442 71.1259C283.461 70.5107 283.499 69.9174 283.519 69.3022C283.538 68.9945 283.557 68.7089 283.576 68.4013C283.595 68.0937 283.595 67.808 283.615 67.5004C283.634 66.9071 283.672 66.3139 283.692 65.7206C283.73 65.1273 283.769 64.556 283.788 63.9848C283.826 62.8422 283.903 61.7435 283.98 60.6888C284.019 60.1615 284.038 59.6561 284.076 59.1507C284.115 58.6454 284.134 58.162 284.172 57.7005C284.249 56.7777 284.326 55.9207 284.384 55.1737C284.442 54.4046 284.519 53.7454 284.576 53.1961C284.711 52.0975 284.826 51.4603 284.826 51.4603C284.826 51.4603 285.038 52.0535 285.346 53.1082C285.5 53.6356 285.673 54.2728 285.865 55.0199C285.961 55.3934 286.057 55.7889 286.134 56.2064C286.211 56.6239 286.288 57.0633 286.384 57.5248C286.538 58.4476 286.711 59.4584 286.865 60.535C286.981 61.6117 287.096 62.7543 287.192 63.9188C287.25 64.5121 287.25 65.1054 287.288 65.7206C287.308 66.3358 287.327 66.9511 287.327 67.5663C287.346 68.1816 287.327 68.8188 287.308 69.434C287.288 70.0712 287.269 70.6864 287.25 71.3237C287.231 71.9609 287.173 72.5761 287.115 73.2133C287.058 73.8505 287 74.4658 286.942 75.081C286.865 75.6962 286.788 76.3115 286.692 76.9047C286.596 77.498 286.519 78.1132 286.404 78.6845C286.192 79.8491 285.961 80.9697 285.692 82.0244C285.634 82.2881 285.557 82.5517 285.5 82.7934C285.442 83.0571 285.365 83.2988 285.288 83.5405C285.134 84.0239 285 84.5073 284.846 84.9468C284.692 85.3862 284.538 85.8257 284.403 86.2212C284.249 86.6167 284.115 87.0122 283.961 87.3638C283.807 87.7154 283.672 88.0449 283.538 88.3526C283.403 88.6602 283.269 88.9239 283.153 89.1656C283.038 89.4073 282.922 89.627 282.807 89.8028C282.711 89.9785 282.615 90.1324 282.538 90.2642C282.422 90.5498 282.326 90.6597 282.326 90.6597Z" fill="#122E45"/>
<path d="M269.478 142.076C269.478 142.076 317.369 152.953 319.1 143.724C320.831 134.495 315.35 127.244 309.868 117.686C304.387 108.128 292.616 91.6485 285.519 95.9332C278.422 100.218 266.882 98.5699 269.478 114.72C272.075 130.87 269.478 142.076 269.478 142.076Z" fill="#122E45"/>
<path d="M398.322 427.81H177.678L159.771 276.33C159.079 270.419 163.099 265.146 168.33 265.146H407.689C412.92 265.146 416.94 270.419 416.248 276.33L398.322 427.81Z" fill="#173955"/>
<path d="M393.091 427.81H182.909L165.541 283.669C165.041 279.494 167.888 275.758 171.581 275.758H404.419C408.112 275.758 410.959 279.472 410.459 283.669L393.091 427.81Z" fill="#1E4B70"/>
<path d="M390.629 436.599H185.371C181.12 436.599 177.678 432.666 177.678 427.81C177.678 422.954 181.12 419.021 185.371 419.021H390.629C394.88 419.021 398.322 422.954 398.322 427.81C398.322 432.666 394.88 436.599 390.629 436.599Z" fill="#173955"/>
<path opacity="0.5" d="M185.371 436.599L167.138 494.388H400.823L390.629 436.599H185.371Z" fill="#173955"/>
<line x1="497.5" y1="147.061" x2="497.5" y2="364.824" stroke="#89618A"/>
</g>
<defs>
<clipPath id="clip0_6_111">
<rect width="577" height="510" rx="110" fill="white"/>
</clipPath>
</defs>
</svg>
