<svg width="36" height="35" viewBox="0 0 36 35" fill="none" xmlns="http://www.w3.org/2000/svg">
<path d="M17.7214 34.4837C27.5086 34.4837 35.4427 27.2153 35.4427 18.2493C35.4427 9.28328 27.5086 2.01489 17.7214 2.01489C7.93412 2.01489 0 9.28328 0 18.2493C0 27.2153 7.93412 34.4837 17.7214 34.4837Z" fill="#3B5998"/>
<path d="M19.1164 30H14.5851V11.5938C14.5851 10.3125 14.8351 9.23438 15.3351 8.35938C15.8456 7.47396 16.5591 6.80729 17.4758 6.35938C18.4029 5.90104 19.5018 5.67188 20.7726 5.67188C21.1893 5.67188 21.5904 5.70312 21.9758 5.76562C22.3612 5.81771 22.7362 5.88542 23.1008 5.96875L23.0539 9.35938C22.856 9.30729 22.6476 9.27083 22.4289 9.25C22.2101 9.22917 21.9549 9.21875 21.6633 9.21875C21.1216 9.21875 20.6581 9.3125 20.2726 9.5C19.8976 9.67708 19.6112 9.94271 19.4133 10.2969C19.2154 10.651 19.1164 11.0833 19.1164 11.5938V30ZM22.4914 13.0938V16.2812H12.0695V13.0938H22.4914Z" fill="white"/>
</svg>
