<svg width="37" height="40" viewBox="0 0 37 40" fill="none" xmlns="http://www.w3.org/2000/svg">
<path d="M18.632 33C28.5731 33 36.632 25.6127 36.632 16.5C36.632 7.3873 28.5731 0 18.632 0C8.6909 0 0.632019 7.3873 0.632019 16.5C0.632019 25.6127 8.6909 33 18.632 33Z" fill="#007AB6"/>
<path d="M13.0078 9.32031V22H10.8281V9.32031H13.0078ZM10.6641 5.95703C10.6641 5.60547 10.7695 5.30859 10.9805 5.06641C11.1992 4.82422 11.5195 4.70312 11.9414 4.70312C12.3555 4.70312 12.6719 4.82422 12.8906 5.06641C13.1172 5.30859 13.2305 5.60547 13.2305 5.95703C13.2305 6.29297 13.1172 6.58203 12.8906 6.82422C12.6719 7.05859 12.3555 7.17578 11.9414 7.17578C11.5195 7.17578 11.1992 7.05859 10.9805 6.82422C10.7695 6.58203 10.6641 6.29297 10.6641 5.95703ZM18.6562 12.0273V22H16.4883V9.32031H18.5391L18.6562 12.0273ZM18.1406 15.1797L17.2383 15.1445C17.2461 14.2773 17.375 13.4766 17.625 12.7422C17.875 12 18.2266 11.3555 18.6797 10.8086C19.1328 10.2617 19.6719 9.83984 20.2969 9.54297C20.9297 9.23828 21.6289 9.08594 22.3945 9.08594C23.0195 9.08594 23.582 9.17188 24.082 9.34375C24.582 9.50781 25.0078 9.77344 25.3594 10.1406C25.7188 10.5078 25.9922 10.9844 26.1797 11.5703C26.3672 12.1484 26.4609 12.8555 26.4609 13.6914V22H24.2812V13.668C24.2812 13.0039 24.1836 12.4727 23.9883 12.0742C23.793 11.668 23.5078 11.375 23.1328 11.1953C22.7578 11.0078 22.2969 10.9141 21.75 10.9141C21.2109 10.9141 20.7188 11.0273 20.2734 11.2539C19.8359 11.4805 19.457 11.793 19.1367 12.1914C18.8242 12.5898 18.5781 13.0469 18.3984 13.5625C18.2266 14.0703 18.1406 14.6094 18.1406 15.1797Z" fill="white"/>
</svg>
