<svg width="36" height="33" viewBox="0 0 36 33" fill="none" xmlns="http://www.w3.org/2000/svg">
<path opacity="0.99" d="M17.7213 32.4688C27.5086 32.4688 35.4427 25.2004 35.4427 16.2344C35.4427 7.26838 27.5086 0 17.7213 0C7.93412 0 0 7.26838 0 16.2344C0 25.2004 7.93412 32.4688 17.7213 32.4688Z" fill="#FAFAFA"/>
<g clip-path="url(#clip0_437_4)">
<path d="M30 8.93672C29.117 9.36139 28.168 9.64739 27.172 9.7763C28.189 9.11655 28.97 8.07114 29.337 6.8253C28.386 7.4363 27.332 7.88047 26.21 8.11989C25.313 7.08314 24.032 6.4353 22.616 6.4353C19.437 6.4353 17.101 9.64847 17.819 12.9841C13.728 12.762 10.1 10.6386 7.671 7.41139C6.381 9.8088 7.002 12.9451 9.194 14.5332C8.388 14.5051 7.628 14.2656 6.965 13.8659C6.911 16.337 8.546 18.6488 10.914 19.1634C10.221 19.3671 9.462 19.4147 8.69 19.2544C9.316 21.3734 11.134 22.915 13.29 22.9583C11.22 24.7166 8.612 25.502 6 25.1683C8.179 26.6817 10.768 27.5646 13.548 27.5646C22.69 27.5646 27.855 19.2002 27.543 11.6981C28.505 10.9452 29.34 10.006 30 8.93672Z" fill="#0CCBF5"/>
</g>
<defs>
<clipPath id="clip0_437_4">
<rect width="24" height="26" fill="white" transform="translate(6 4)"/>
</clipPath>
</defs>
</svg>
